<svg width="32" height="32" viewBox="0 0 32 32" fill="none" xmlns="http://www.w3.org/2000/svg">
<g id="Outline / Essentional, UI / Add Square">
<g id="Vector">
<path d="M17.0003 12.0003C17.0003 11.448 16.5526 11.0003 16.0003 11.0003C15.448 11.0003 15.0003 11.448 15.0003 12.0003L15.0003 15.0004H12.0003C11.448 15.0004 11.0003 15.4481 11.0003 16.0004C11.0003 16.5526 11.448 17.0004 12.0003 17.0004H15.0003V20.0003C15.0003 20.5526 15.448 21.0003 16.0003 21.0003C16.5526 21.0003 17.0003 20.5526 17.0003 20.0003L17.0003 17.0004H20.0003C20.5526 17.0004 21.0003 16.5526 21.0003 16.0004C21.0003 15.4481 20.5526 15.0004 20.0003 15.0004H17.0003V12.0003Z" fill="white" fill-opacity="0.7"/>
<path fill-rule="evenodd" clip-rule="evenodd" d="M16.0768 1.66699H15.9238C12.846 1.66698 10.4339 1.66696 8.55193 1.91999C6.62562 2.17897 5.10559 2.71943 3.91251 3.91251C2.71943 5.10559 2.17897 6.62562 1.91999 8.55193C1.66696 10.4339 1.66698 12.846 1.66699 15.9238V16.0768C1.66698 19.1547 1.66696 21.5667 1.91999 23.4487C2.17897 25.375 2.71943 26.8951 3.91251 28.0881C5.10559 29.2812 6.62562 29.8217 8.55193 30.0807C10.4339 30.3337 12.846 30.3337 15.9238 30.3337H16.0768C19.1547 30.3337 21.5667 30.3337 23.4487 30.0807C25.375 29.8217 26.8951 29.2812 28.0881 28.0881C29.2812 26.8951 29.8217 25.375 30.0807 23.4487C30.3337 21.5667 30.3337 19.1547 30.3337 16.0768V15.9238C30.3337 12.846 30.3337 10.4339 30.0807 8.55193C29.8217 6.62562 29.2812 5.10559 28.0881 3.91251C26.8951 2.71943 25.375 2.17897 23.4487 1.91999C21.5667 1.66696 19.1547 1.66698 16.0768 1.66699ZM5.32672 5.32672C6.08626 4.56718 7.11389 4.13132 8.81843 3.90215C10.5517 3.66912 12.8294 3.66699 16.0003 3.66699C19.1713 3.66699 21.4489 3.66912 23.1822 3.90215C24.8868 4.13132 25.9144 4.56718 26.6739 5.32672C27.4335 6.08626 27.8693 7.11389 28.0985 8.81843C28.3315 10.5517 28.3337 12.8294 28.3337 16.0003C28.3337 19.1713 28.3315 21.4489 28.0985 23.1822C27.8693 24.8868 27.4335 25.9144 26.6739 26.6739C25.9144 27.4335 24.8868 27.8693 23.1822 28.0985C21.4489 28.3315 19.1713 28.3337 16.0003 28.3337C12.8294 28.3337 10.5517 28.3315 8.81843 28.0985C7.11389 27.8693 6.08626 27.4335 5.32672 26.6739C4.56718 25.9144 4.13132 24.8868 3.90215 23.1822C3.66912 21.4489 3.66699 19.1713 3.66699 16.0003C3.66699 12.8294 3.66912 10.5517 3.90215 8.81843C4.13132 7.11389 4.56718 6.08626 5.32672 5.32672Z" fill="white" fill-opacity="0.7"/>
</g>
</g>
</svg>
