<svg width="25" height="24" viewBox="0 0 25 24" fill="none" xmlns="http://www.w3.org/2000/svg">
<g id="jam:linkedin">
<path id="Vector" d="M22.459 13.7203V21.0993H18.181V14.2143C18.181 12.4843 17.562 11.3043 16.014 11.3043C14.832 11.3043 14.128 12.1003 13.819 12.8693C13.706 13.1443 13.677 13.5273 13.677 13.9123V21.0993H9.397C9.397 21.0993 9.455 9.43934 9.397 8.23034H13.677V10.0543L13.649 10.0963H13.677V10.0543C14.245 9.17934 15.26 7.92834 17.533 7.92834C20.348 7.92834 22.459 9.76834 22.459 13.7203ZM4.921 2.02734C3.458 2.02734 2.5 2.98734 2.5 4.25034C2.5 5.48534 3.43 6.47434 4.865 6.47434H4.893C6.386 6.47434 7.313 5.48534 7.313 4.25034C7.287 2.98734 6.386 2.02734 4.921 2.02734ZM2.754 21.0993H7.032V8.23034H2.754V21.0993Z" fill="#090500"/>
</g>
</svg>
