<svg width="25" height="24" viewBox="0 0 25 24" fill="none" xmlns="http://www.w3.org/2000/svg">
<g id="mingcute:telegram-fill">
<g id="Group">
<path id="Vector" fill-rule="evenodd" clip-rule="evenodd" d="M20.2747 4.42997C20.5218 4.32596 20.7923 4.29008 21.058 4.32608C21.3237 4.36208 21.5749 4.46863 21.7854 4.63465C21.9959 4.80067 22.1581 5.02008 22.2551 5.27005C22.352 5.52002 22.3802 5.79141 22.3367 6.05597L20.0687 19.813C19.8487 21.14 18.3927 21.901 17.1757 21.24C16.1577 20.687 14.6457 19.835 13.2857 18.946C12.6057 18.501 10.5227 17.076 10.7787 16.062C10.9987 15.195 14.4987 11.937 16.4987 9.99997C17.2837 9.23897 16.9257 8.79997 15.9987 9.49997C13.6967 11.238 10.0007 13.881 8.7787 14.625C7.7007 15.281 7.1387 15.393 6.4667 15.281C5.2407 15.077 4.1037 14.761 3.1757 14.376C1.9217 13.856 1.9827 12.132 3.1747 11.63L20.2747 4.42997Z" fill="#090500"/>
</g>
</g>
</svg>
