<svg width="49" height="53" viewBox="0 0 49 53" fill="none" xmlns="http://www.w3.org/2000/svg">
<g id="Group 50160">
<g id="Mask group">
<path id="Vector 3" d="M29.9231 49.8018L28.2775 50.7573C27.2802 51.3364 26.0303 50.6168 26.0303 49.4635V26.5955C26.0303 26.0612 26.3152 25.5674 26.7779 25.3001L37.2501 19.2495C38.2474 18.6733 39.4945 19.393 39.4945 20.5449V36.3631C39.4945 37.5018 40.7162 38.2231 41.7132 37.673L43.0597 36.9301C43.5368 36.6669 43.833 36.1651 43.833 35.6202V16.3087C43.833 15.7554 44.1385 15.2472 44.6272 14.9876L46.4224 14.0338C47.4188 13.5045 48.6203 14.2267 48.6203 15.355V38.0289C48.6203 38.5658 48.3326 39.0615 47.8665 39.3278L37.2447 45.3974C36.2474 45.9673 35.0064 45.2472 35.0064 44.0985V28.4928C35.0064 27.3367 33.7512 26.6175 32.7538 27.2021L31.4074 27.9914C30.9494 28.2599 30.668 28.7511 30.668 29.282V48.508C30.668 49.0412 30.3842 49.534 29.9231 49.8018Z" fill="url(#paint0_angular_1_298)"/>
<path id="Vector 2" d="M0.742756 39.6288C0.282849 39.3608 0 38.8685 0 38.3362V15.7684C0 14.6141 1.25196 13.8947 2.2493 14.4759L21.8473 25.8972C22.3072 26.1652 22.59 26.6575 22.59 27.1898V28.9803C22.59 30.1307 21.3456 30.8506 20.3483 30.2772L6.87944 22.5326C5.88209 21.9591 4.63769 22.679 4.63769 23.8295V36.0837C4.63769 36.6206 4.92535 37.1163 5.39148 37.3826L16.0133 43.4522C17.0106 44.0221 18.2515 43.302 18.2515 42.1533V40.0875C18.2515 39.5382 17.9505 39.0331 17.4673 38.7717L9.90996 34.6833C9.42681 34.4219 9.12577 33.9168 9.12577 33.3674V31.7647C9.12577 30.6128 10.3729 29.8931 11.3702 30.4693L21.8424 36.5199C22.3051 36.7872 22.59 37.281 22.59 37.8153V49.7576C22.59 50.9119 21.3381 51.6313 20.3407 51.0501L0.742756 39.6288Z" fill="url(#paint1_angular_1_298)"/>
<path id="Vector 1" fill-rule="evenodd" clip-rule="evenodd" d="M4.32491 9.182C3.3309 9.75705 3.32861 11.1913 4.32078 11.7695L23.9267 23.1955C24.3948 23.4683 24.9738 23.4667 25.4403 23.1913L42.2006 13.3C42.6565 13.0309 42.9363 12.541 42.9363 12.0116V8.77926C42.9363 8.25199 42.6587 7.76366 42.2057 7.49388L29.9754 0.210653C29.7439 0.0727805 29.4794 0 29.2099 0H20.5982C20.3352 0 20.0768 0.0693586 19.8491 0.201082L4.32491 9.182ZM25.4347 17.8243C24.9706 18.0887 24.4007 18.0856 23.9395 17.8161L13.591 11.7698C12.6003 11.191 12.6032 9.7583 13.5962 9.18341L22.3922 4.091C22.62 3.95912 22.8785 3.88967 23.1417 3.88967H26.5275C26.7904 3.88967 27.0486 3.95895 27.2762 4.09054L35.7561 8.99296C36.2186 9.26032 36.5034 9.75396 36.5034 10.2881V10.6499C36.5034 11.1875 36.2149 11.6837 35.7478 11.9498L25.4347 17.8243Z" fill="url(#paint2_angular_1_298)"/>
</g>
</g>
<defs>
<radialGradient id="paint0_angular_1_298" cx="0" cy="0" r="1" gradientUnits="userSpaceOnUse" gradientTransform="translate(36.9864 32.4642) rotate(90) scale(19.598 10.9562)">
<stop offset="0.0729167" stop-color="#E3A455"/>
<stop offset="0.244792" stop-color="#F6DBA6"/>
<stop offset="0.434957" stop-color="#FFEBC4"/>
<stop offset="0.532623" stop-color="#F0BE79"/>
<stop offset="0.593311" stop-color="#8F653B"/>
<stop offset="0.627652" stop-color="#673D22"/>
<stop offset="0.708863" stop-color="#BA7F3B"/>
<stop offset="0.773898" stop-color="#EEBC70"/>
<stop offset="0.921875" stop-color="#3F1F0F"/>
</radialGradient>
<radialGradient id="paint1_angular_1_298" cx="0" cy="0" r="1" gradientUnits="userSpaceOnUse" gradientTransform="translate(10.9562 32.763) rotate(90) scale(19.598 10.9562)">
<stop offset="0.0729167" stop-color="#E3A455"/>
<stop offset="0.244792" stop-color="#F6DBA6"/>
<stop offset="0.434957" stop-color="#FFEBC4"/>
<stop offset="0.532623" stop-color="#F0BE79"/>
<stop offset="0.593311" stop-color="#8F653B"/>
<stop offset="0.627652" stop-color="#673D22"/>
<stop offset="0.708863" stop-color="#BA7F3B"/>
<stop offset="0.773898" stop-color="#EEBC70"/>
<stop offset="0.921875" stop-color="#3F1F0F"/>
</radialGradient>
<radialGradient id="paint2_angular_1_298" cx="0" cy="0" r="1" gradientUnits="userSpaceOnUse" gradientTransform="translate(21.9029 11.8186) rotate(90) scale(11.8186 19.8082)">
<stop offset="0.0729167" stop-color="#E3A455"/>
<stop offset="0.244792" stop-color="#F6DBA6"/>
<stop offset="0.434957" stop-color="#FFEBC4"/>
<stop offset="0.532623" stop-color="#F0BE79"/>
<stop offset="0.593311" stop-color="#8F653B"/>
<stop offset="0.627652" stop-color="#673D22"/>
<stop offset="0.708863" stop-color="#BA7F3B"/>
<stop offset="0.773898" stop-color="#EEBC70"/>
<stop offset="0.921875" stop-color="#3F1F0F"/>
</radialGradient>
</defs>
</svg>
