<svg xmlns="http://www.w3.org/2000/svg" width="62" height="66" viewBox="0 0 62 66" fill="none">
  <path d="M35.9889 63.7956L38.0197 62.6165C38.6456 62.253 39.0307 61.584 39.0307 60.8603V37.1347C39.0307 36.545 39.3433 35.9995 39.852 35.7013L41.5135 34.7273C42.6212 34.078 44.0154 34.8768 44.0154 36.1607V55.4188C44.0154 56.978 45.6998 57.9556 47.0537 57.182L60.1614 49.6919C60.7941 49.3303 61.1846 48.6574 61.1846 47.9287V19.9482C61.1846 18.4166 59.5537 17.4363 58.2011 18.1548L55.9857 19.3317C55.3223 19.6842 54.9077 20.374 54.9077 21.1251V44.9563C54.9077 45.5614 54.5786 46.1187 54.0488 46.4111L52.3872 47.3278C51.2799 47.9387 49.923 47.1377 49.923 45.873V26.3527C49.923 24.7891 48.2302 23.8121 46.8763 24.5943L33.9533 32.061C33.3252 32.4238 32.9384 33.0941 32.9384 33.8194V62.0394C32.9384 63.6049 34.6351 64.5817 35.9889 63.7956Z" fill="url(#paint0_angular_52_45)" stroke="black" stroke-width="0.369231"/>
  <path d="M0.815385 48.3083C0.815385 49.0309 1.19933 49.699 1.82363 50.0628L26.0082 64.1572C27.3621 64.9462 29.0615 63.9696 29.0615 62.4026V47.6654C29.0615 46.9401 28.6747 46.2699 28.0467 45.9071L15.1236 38.4404C13.7698 37.6582 12.0769 38.6352 12.0769 40.1988V42.1766C12.0769 42.9223 12.4856 43.608 13.1414 43.9628L22.4675 49.008C23.0041 49.2983 23.3385 49.8593 23.3385 50.4694V53.0187C23.3385 54.2945 21.9602 55.0943 20.8526 54.4613L7.74488 46.9712C7.22718 46.6754 6.90769 46.1248 6.90769 45.5286V30.4065C6.90769 29.1287 8.28977 28.3291 9.39746 28.9661L26.0185 38.5231C27.3723 39.3016 29.0615 38.3244 29.0615 36.7627V34.5531C29.0615 33.8306 28.6776 33.1624 28.0533 32.7986L3.86868 18.7042C2.51485 17.9152 0.815385 18.8918 0.815385 20.4588V48.3083Z" fill="url(#paint1_angular_52_45)" stroke="black" stroke-width="0.369231"/>
  <path d="M6.24464 12.1711C4.89533 12.9517 4.89223 14.8986 6.23904 15.6835L30.4335 29.7836C31.0689 30.1539 31.8548 30.1517 32.4881 29.7779L53.1709 17.5717C53.7898 17.2065 54.1696 16.5414 54.1696 15.8228V11.8339C54.1696 11.1182 53.7928 10.4553 53.1779 10.0891L38.0852 1.10133C37.7709 0.91418 37.4119 0.815385 37.0461 0.815385H26.419C26.0619 0.815385 25.7111 0.909535 25.402 1.08834L6.24464 12.1711ZM32.296 22.8355C31.7805 23.1291 31.1476 23.1256 30.6354 22.8264L17.865 15.365C16.7647 14.7221 16.7678 13.1309 17.8707 12.4924L28.7253 6.20821C28.9782 6.06174 29.2654 5.98462 29.5577 5.98462H33.7359C34.0279 5.98462 34.3147 6.06156 34.5675 6.2077L45.0319 12.2575C45.5456 12.5544 45.8619 13.1027 45.8619 13.6959V14.1423C45.8619 14.7394 45.5415 15.2906 45.0227 15.5861L32.296 22.8355Z" fill="url(#paint2_angular_52_45)" stroke="black" stroke-width="0.369231"/>
  <defs>
    <radialGradient id="paint0_angular_52_45" cx="0" cy="0" r="1" gradientUnits="userSpaceOnUse" gradientTransform="translate(46.6434 41.0616) rotate(90) scale(24.1846 13.5203)">
      <stop offset="0.0729167" stop-color="#E3A455"/>
      <stop offset="0.244792" stop-color="#F6DBA6"/>
      <stop offset="0.434957" stop-color="#FFEBC4"/>
      <stop offset="0.532623" stop-color="#F0BE79"/>
      <stop offset="0.593311" stop-color="#8F653B"/>
      <stop offset="0.627652" stop-color="#673D22"/>
      <stop offset="0.708863" stop-color="#BA7F3B"/>
      <stop offset="0.773898" stop-color="#EEBC70"/>
      <stop offset="0.921875" stop-color="#3F1F0F"/>
    </radialGradient>
    <radialGradient id="paint1_angular_52_45" cx="0" cy="0" r="1" gradientUnits="userSpaceOnUse" gradientTransform="translate(14.5203 41.4307) rotate(90) scale(24.1846 13.5203)">
      <stop offset="0.0729167" stop-color="#E3A455"/>
      <stop offset="0.244792" stop-color="#F6DBA6"/>
      <stop offset="0.434957" stop-color="#FFEBC4"/>
      <stop offset="0.532623" stop-color="#F0BE79"/>
      <stop offset="0.593311" stop-color="#8F653B"/>
      <stop offset="0.627652" stop-color="#673D22"/>
      <stop offset="0.708863" stop-color="#BA7F3B"/>
      <stop offset="0.773898" stop-color="#EEBC70"/>
      <stop offset="0.921875" stop-color="#3F1F0F"/>
    </radialGradient>
    <radialGradient id="paint2_angular_52_45" cx="0" cy="0" r="1" gradientUnits="userSpaceOnUse" gradientTransform="translate(28.029 15.5846) rotate(90) scale(14.5846 24.444)">
      <stop offset="0.0729167" stop-color="#E3A455"/>
      <stop offset="0.244792" stop-color="#F6DBA6"/>
      <stop offset="0.434957" stop-color="#FFEBC4"/>
      <stop offset="0.532623" stop-color="#F0BE79"/>
      <stop offset="0.593311" stop-color="#8F653B"/>
      <stop offset="0.627652" stop-color="#673D22"/>
      <stop offset="0.708863" stop-color="#BA7F3B"/>
      <stop offset="0.773898" stop-color="#EEBC70"/>
      <stop offset="0.921875" stop-color="#3F1F0F"/>
    </radialGradient>
  </defs>
</svg>